<svg width="16" height="16" viewBox="0 0 16 16" fill="none" xmlns="http://www.w3.org/2000/svg">
<path d="M9.63093 1.63248L10.9509 4.27248C11.1309 4.63998 11.6109 4.99248 12.0159 5.05998L14.4084 5.45748C15.9384 5.71248 16.2984 6.82248 15.1959 7.91748L13.3359 9.77748C13.0209 10.0925 12.8484 10.7 12.9459 11.135L13.4784 13.4375C13.8984 15.26 12.9309 15.965 11.3184 15.0125L9.07593 13.685C8.67093 13.445 8.00343 13.445 7.59093 13.685L5.34843 15.0125C3.74343 15.965 2.76843 15.2525 3.18843 13.4375L3.72093 11.135C3.81843 10.7 3.64593 10.0925 3.33093 9.77748L1.47093 7.91748C0.375928 6.82248 0.728428 5.71248 2.25843 5.45748L4.65093 5.05998C5.04843 4.99248 5.52843 4.63998 5.70843 4.27248L7.02843 1.63248C7.74843 0.19998 8.91843 0.19998 9.63093 1.63248Z" fill="#FFCD1A"/>
</svg>
